<svg width="84" height="16" viewBox="0 0 84 16" fill="none" xmlns="http://www.w3.org/2000/svg">
<path fill-rule="evenodd" clip-rule="evenodd" d="M11.1488 2.43508L9.47757 9.9859C8.29419 11.8099 4.2977 13.4671 3.35307 10.4958C2.28388 7.14209 6.3219 1.41523 11.1488 2.43508ZM12.0208 14.8302L14.9689 1.44465L15 1.43484C5.42917 -4.05667 -2.40811 7.61279 0.685281 12.9278C1.88942 14.9969 5.87553 16.2913 8.98969 12.967C9.21806 14.0751 10.4326 14.8302 12.0208 14.8302Z" fill="#2F3639"/>
<path fill-rule="evenodd" clip-rule="evenodd" d="M30 1.45856C22.9393 -2.48113 17.4532 2.15147 15.8688 8.30847C15.5618 9.50622 15.3538 10.8029 15.0469 12.2779C14.73 13.8122 16.0569 14.9901 17.9187 14.9901C18.7406 11.0504 19.7507 0.785449 26.3459 2.47813L24.3059 12.2878C23.989 13.8221 25.316 15 27.1777 15L30 1.45856Z" fill="#2F3639"/>
<path fill-rule="evenodd" clip-rule="evenodd" d="M32.0388 2.76393L30.0471 12.2875C29.7284 13.8219 31.0629 15 32.945 15L35.1856 4.24889C36.6993 2.62534 37.6254 2.40754 38.5515 2.42734C40.2644 2.44714 40.5432 4.61518 39.9855 6.94162L38.91 12.0796C38.5715 13.713 39.9955 14.9703 41.9971 14.9703L43.6203 7.19901C43.8195 6.44663 43.8992 5.60516 43.8593 4.77358C45.6518 2.66494 46.6676 2.41744 47.6833 2.42734C49.3962 2.44714 49.675 4.61518 49.1173 6.94162L48.0418 12.0796C47.7033 13.713 49.1273 14.9703 51.1289 14.9703L52.7521 7.19901C53.3198 5.06067 52.9115 2.16005 51.5372 0.981982C49.6352 -0.651473 46.0103 -0.0574896 44.3971 1.61556C43.9689 1.90266 43.6303 2.16005 43.3614 2.39764C42.0668 -0.77027 37.8445 -0.552476 35.2653 1.61556L35.1358 1.70466C35.0263 1.42747 34.8769 1.16018 34.6777 0.912684H31.7002C31.9989 1.55617 32.1085 2.30855 32.0388 2.76393Z" fill="#2F3639"/>
<path fill-rule="evenodd" clip-rule="evenodd" d="M65.2564 8.92651C64.5268 11.6984 62.2901 13.5497 60.0053 13.8899C57.9318 14.2001 55.4934 12.1587 55.3878 9.07662C54.3222 11.158 55.3878 15.431 59.3909 15.9313C64.5844 16.5918 68.3379 12.3689 68.8947 8.4762C69.4899 4.31336 67.5987 0.0604502 62.2709 0.00040916C60.0725 -0.0296114 55.8102 1.5915 55.311 5.14393C55.0038 7.28539 56.4822 8.25605 58.6901 7.54557C58.191 5.70431 59.3717 2.01178 62.2421 2.01178C64.6324 2.01178 65.8612 4.38341 65.506 7.63563C63.0868 5.71432 61.1381 8.21603 59.1989 6.98518C60.6389 11.9086 63.778 9.17668 65.2564 8.92651Z" fill="#2F3639"/>
<path fill-rule="evenodd" clip-rule="evenodd" d="M79.8856 5.55442C78.5524 8.97453 75.4546 8.50589 74.9655 6.88059C74.1503 4.21829 77.0179 0.638638 80.4802 2.59299L79.8856 5.55442ZM79.1567 9.22381L78.5524 12.255C78.2455 13.8006 79.5307 14.9871 81.3338 14.9871L84 1.67564C74.6394 -3.53928 70.055 4.6969 72.4143 8.97453C72.6637 9.43321 73.0473 9.82208 73.5364 10.1013C72.3472 11.7465 70.4482 13.2821 69 14.329C71.2538 15.5256 73.7858 15.1068 75.0038 13.1923C75.5985 12.265 76.078 11.3975 76.5096 10.4702C77.3344 10.2808 78.2359 9.89188 79.1567 9.22381Z" fill="#2F3639"/>
</svg>
